<?xml version="1.0" encoding="UTF-8" standalone="no"?>
<svg viewBox="0 0 500 464.49106" xmlns="http://www.w3.org/2000/svg">
<g transform="matrix(.52574,0,0,.52574,1399.13347,259.73657)">
<path d="m-1936.6598-494.04327c-36.9543,35.29513-30.1615,59.07624-133.6682,97.16498-73.4368,27.02339-199.5585,26.59997-339.706,82.26249-113.2626,44.89291-205.0168,119.55524-238.0871,246.42615-40.3234,154.69691 17.7268,285.81953 96.5493,401.2272l9.2049,15.53736 241.7852,38.86798c.0001-1e-005 235.9085-21.87024 296.5377-27.29089 2.2056,3.50449 6.9704,5.55597 13.8115,3.77879 113.646-60.61365 137.2361-135.89432 166.2372-255.94151 13.876-57.43731 18.6259-114.98651 48.0553-171.32719 15.9549-30.5442 31.1733-62.59251 61.1754-83.23908 4.6154-3.17619 5.1711-7.71887 4.0056-11.28881-.8245-2.52431-7.6534-7.76256-10.7782-7.97539-4.7715-.32498-9.3161.25546-13.8935,2.39031-17.2965,8.06686-46.4471,21.51779-70.7036,29.47832-29.8605,9.79945-54.9641,4.41609-80.9945,9.96132-5.3103,1.13123-15.4702,5.13328-15.4701,5.13328 24.4483-42.45628 61.2364-88.28807 133.3954-143.33955 15.9734-12.18672 36.3323-29.26736 55.6877-41.86192 2.6024-1.69315.1853-6.70462-1.2075-9.26181-1.5107-2.77367-4.6046-5.90409-7.4899-6.74039-2.6835-.7778-5.2646-1.69767-9.1928,1.92367-50.1361,36.96842-114.2751,43.52122-172.8095,59.85954-11.7885,3.69453-34.8904,12.50868-34.8904,12.50868 40.9252-60.43375 120.6206-123.10541 185.0898-202.79704-2.8163-14.14206-9.3791-14.67317-15.2379-17.78566-47.6033,61.21715-165.9194,79.34749-237.8807,101.21431 37.0113-32.62279 60.4586-74.96432 88.403-114.08886-1.3268-7.08288-7.2911-12.01857-17.9281-14.79628z" fill="#f00"/>
<path d="m-1999.2524-405.62873c-22.1222,31.73236-52.4542,56.92339-80.0325,82.88666-3.0957,2.91452-6.7109,12.53298.6772,12.85718l22.2373.95672c0,0 39.0062-35.7968 64.2484-42.71963 61.7154-16.9259 169.5133-54.71029 169.5133-54.71029-49.2587,56.14074-103.0605,107.57515-151.8557,172.50711l-19.15,30.33046c-1.8191,2.88284.5994,7.67176 2.6793,9.87274 2.2126,2.34145 6.8135,3.95961 10.2129,3.78057 4.4469-.23421 10.2162-2.61397 13.0557-6.41431 15.3514-20.54552 38.6651-35.34769 48.4792-37.91482l121.8367-31.85854c-43.3632,33.31583-69.9986,67.20627-98.3846,101.03329-17.687,24.05922-36.0453,47.69288-49.7327,74.12462-3.6139,6.97889-3.971,11.3578.6394,12.13942l8.6837,1.48282c6.1668,1.04549 10.5851-2.72082 14.5915-6.9646 15.119-16.01547 24.3536-19.54415 40.2065-25.05566 19.7917-6.88092 50.892-3.29619 67.7351-5.03835 11.557-1.19544 54.263-14.24878 54.263-14.24878-53.2278,60.52886-71.7184,133.32693-79.0801,205.53759-14.1257,138.55974-109.7936,248.3892-155.7004,265.27524-4.0352,1.40102-6.9121,3.55276-8.7607,5.96904l-304.3309,28.4524c0,0-225.3759-34.66354-229.5703-37.47727-4.8531-14.46803-9.3145-28.22266-16.3391-42.26162-60.5454-96.34649-122.5651-209.86142-81.9086-361.50477 33.227-123.93192 128.9204-200.06254 248.2984-242.67679 93.918-27.94883 179.927-43.5577 272.5533-53.69093 41.5516-4.5457 81.612-24.38682 114.9347-44.6695z" fill="#faa"/>
<path d="m-2058.9005-286.8583c-2.3026.15012-4.2417,1.2918-5.9604,2.69222l-12.6006,10.30201c-3.7418,3.04888-4.3555,8.65457-1.2543,14.21064 2.4437,4.37814 10.8417,5.58808 13.5553,3.07254 .9261-.8584 13.0612-8.16029 20.128-11.16787 4.455-1.89601 8.6786-7.19715 3.2632-10.52996l-10.9966-6.77474c-2.3369-1.43827-4.3437-1.92163-6.1346-1.80484z"/>
<path d="m-2357.5725-238.89529c-1.9525,9.56533-35.8931,56.31317-76.9487,105.19284-56.5472,67.32346-125.3773,140.6917-131.4557,144.52041-2.5234,1.58944-.9346,21.87168-1.8115,49.38238-.2987,9.38831 3.4472,21.13478 3.9793,32.17899 .5198,10.78027-1.4326,21.85049-.8231,33.68367 .7935,15.40879 4.2315,31.86432 5.0638,48.01887 3.5759,69.41488 8.0638,126.08217 8.3486,185.66418-.1367,4.94575.1041,5.25856 4.4432,6.52534l16.3591,4.02013-.062-1.18585c114.6514,24.78186 218.7807,23.57781 336.9461,14.04468 34.2609-3.07132 68.3108-8.37179 102.5715-11.442 22.6443-2.02923 62.0062-4.45362 80.8813-5.57429 .049.93456.083,1.8703.1169,2.81024l20.0543-3.05902c-.1071-.64471-9.302-53.92509-9.6176-69.12107-.408-19.64874 3.892-38.52198 4.0102-61.70258 .048-9.44321-.029-18.68395-.1488-27.78063l5.7619,4.82863c2.9527,2.48965 6.8299-.21187 9.3685-4.53027 14.8601-25.28 34.2191-34.16138 52.0428-49.27423 3.8994-3.30605 6.5977-8.93113 2.3894-12.26765l-8.9796-7.10003c-5.4229-4.29915-7.7003.46565-10.5051,2.55607-18.1852,13.55197-33.9516,29.57346-50.3958,44.90029-.3584-18.03535-.7832-35.59934-.8248-53.0926l14.3812,10.44555c1.8204,1.32199 3.8906-.52122 7.2562-4.23126 20.1796-22.24374 10.5182-11.58957 27.4184-27.2298 3.7515-3.47217 6.1517-10.14989 1.8029-13.30074l-8.395-6.09814c-5.6035-4.05992-8.0043.10609-10.4722,2.58563-13.8915,13.95709-23.0412,25.01882-32.0201,33.13627 .045-26.06148 1.0307-52.03902 4.4332-79.21783-12.5511-23.25738-26.6257-47.29909-40.4812-72.25208 13.1302-9.27643 27.2838-16.7438 38.4046-29.56087 5.5316-6.37574 1.0103-6.91792-1.6739-8.0168l-9.3064-3.79702c-3.9037-1.59803-6.1581-1.5162-9.2372,2.27024-7.3661,9.05878-16.9888,16.0619-27.2935,22.46664-12.3512-22.91262-24.2246-46.61581-34.3253-71.23071 4.8652-3.55084 21.4011-15.54066 27.2084-18.73825 2.2904-1.26129 5.2102-.35874 7.4862-1.64603 2.7263-1.54189 4.4134-1.38187 4.9732-6.58318 .4547-4.22979-9.7617-10.05019-16.4957-10.7723-3.1059-.33305-6.208,1.28099-8.9612,2.75639-6.7194,3.60069-16.5883,12.60647-21.1987,16.98224-10.295-28.12496-17.984-57.42538-21.2568-88.09766-1.2765-11.96341-4.9171-14.00581-11.7621-12.39851l-2.9991.68995c-.179-3.15073-3.5293-3.50192-5.9984-3.37668-35.3875,1.79494-85.9758,6.03241-130.0648,8.13346-8.2083.39118-16.4028-1.12131-24.6123-1.48878-10.294-.46077-20.7329.75022-30.903-.90711-9.5401-1.55467-18.8079-4.09192-27.73-8.39687-3.2389-1.56275-10.5201-2.48137-10.5201-2.48137l.5542,17.65154c-.4538-4.18438-1.4147-10.40528-3.2296-13.78672-1.2796-2.38382-5.7456-5.7057-5.7456-5.7057h-.0005z"/>
<path d="m-2339.1398-215.11312c.5436-.0434 1.0753-.0616 1.5307-.0494 6.2071.16632 11.9474,3.77964 18.1477,4.11369 13.84.74562 30.4013.87152 47.9436.63546l-10.05,8.22748c-2.4089,1.97613-2.997,5.06498-.9539,10.40833 5.1614,13.49953 6.6591,28.26166 16.8155,40.60927 2.2537,2.73996 5.467,6.13561 10.5677,3.98094l11.6334-4.89991c2.9681-1.2537 4.1922-4.95024.2575-9.37026l-5.3874-6.0375c-11.6792-13.11999-11.3054-28.5476-15.8482-43.03851 6.2891-.11821 12.6542-.24313 19.0658-.44091l-5.4068,6.66861c-2.1425,2.64822-3.3387,3.35484-1.6896,10.69743 1.6362,7.28738 4.2563,14.8399 9.6534,20.48937 5.1811,5.42324 11.5632,10.99017 18.5505,11.16476 5.7285.14318 9.8664.90853 13.8212-1.97969 2.6471-1.9332 2.1483-7.44581.3101-8.37164-14.3088-7.20719-19.7554-24.90715-22.8383-39.10291 7.8612-.29318 15.6718-.64654 23.323-1.00936 4.425,8.93341 18.8109,36.50882 33.109,49.32686 4.1845,3.75137 15.0017,5.17565 16.4182,3.95443 1.835-1.58202.025-10.17902-.3355-11.12275-.6549-1.71561-18.4928-35.56443-22.6972-43.55399 24.4101-1.38963 44.9108-2.82197 55.4182-3.6073 6.1331,78.95118 58.188,171.44783 109.2682,263.64905-12.877,1.79144-30.4893,3.90962-41.1451,3.66917-9.6901-.21865-16.3164-4.53953-24.0049-4.80658-67.8939-2.35825-168.7817-24.3928-201.4559-31.88575 .499-6.45611.9868-12.79061 1.4874-19.29243l-10.0074,1.90399c.5723-4.11501.8743-8.324.3954-11.50547-5.7856-38.42826-13.2088-76.76372-24.188-114.0419-2.7979-9.49971-7.621-18.3095-10.5687-27.7638-4.2851-13.74389-4.4846-28.78998-10.3145-41.95306-1.8141-4.095-5.3664-9.50958-8.7287-14.21683 1.8544-.45479 5.2556-1.23748 7.9036-1.44896z" fill="#fff"/>
<path d="m-2359.0788-197.97818c12.0926,32.57991 42.2479,127.84757 47.3607,181.47893 1.2249,12.8473-1.8002,38.30396-1.8002,38.30396l6.3334,1.41885c-7.0499,114.96758-12.3933,226.44269-3.6899,341.38084-24.7141-2.80119-52.1096,2.32175-76.453-1.17783-8.8899-45.66058-4.1991-90.26303 1.0036-132.816 2.55-20.85062-4.3666-24.99575-9.2234-25.98836-22.7602-4.65167-46.3354-6.40346-69.8231-8.46426-3.4223-.30031-7.9169-1.27957-11.0801-1.23143-.3072.005-.5935.0209-.8738.046-1.9601.17573-3.2049.88729-2.9892,2.6609l17.3319,153.93297c.3332,2.74261.505,3.77515.7377,6.87697-23.1285-4.22992-44.553-6.69286-67.1855-11.85769-2.0894-.11308-2.3762-3.15327-2.2323-4.35737-1.2484-28.47577-4.6561-117.63976-6.9832-170.75055-.5277-12.05363-4.9847-27.23532-5.673-42.94857-.7203-16.44137-1.1022-33.77457-1.2748-49.75182-.1242-11.42531-2.923-22.01516-2.8968-31.23462 .05-18.26736 3.0751-30.73553 3.0751-30.73553 61.2033-66.92392 117.3837-108.07106 186.3359-214.78543v3e-005z" fill="#ccc"/>
<path d="m-2046.9684-210.0358c-1.7018.10495-3.3691,1.06865-4.9831,2.82851l-14.0196,11.87882c-2.1048,2.18659-3.8735,4.49698-.591,8.38645l3.6087,6.13117c1.7932,3.04606 5.162,5.27606 8.5048,2.83786l21.6667-15.81774c3.724-2.71602 4.3062-6.9837.8144-8.8989l-10.9555-5.99458c-1.3795-.98475-2.7222-1.43316-4.0454-1.35159z"/>
<path d="m-1982.9283-155.70389c-.2745.008-.5649.0426-.8409.0755-2.2105.26488-4.458,1.29226-6.404,2.59041-7.5966,5.06781-25.2018,19.06921-26.7336,20.62214-1.475,1.49538-4.4429,3.43522-.8637,7.36812l7.2421,7.97388c1.1142,1.22462 3.7474,3.52652 9.5804-.50459l30.4965-21.07063c4.489-3.10233 3.03-5.66084 1.1428-7.41412l-8.2569-7.63879c-1.595-1.48182-3.4417-2.06098-5.3627-2.00196z"/>
<path d="m-2286.2286,27.78389c16.346,3.47799 38.6177,8.02241 63.3405,12.5296-.4193,7.5727-1.4162,30.55742 1.2959,44.80636 .6269,3.29329.8727,10.2387 3.3199,12.53023 2.2943,2.14876 8.9762,3.56611 11.9654,2.593 3.61-1.17525 4.3695-4.35817 4.9238-8.11396 1.639-11.10516-1.848-25.3894-.2133-37.91626 .3568-2.73244 1.5687-6.79362 2.4912-9.73826 6.5461,1.10264 13.1625,2.18715 19.7902,3.21355-1.1355,6.47996-4.9983,26.38734-5.3301,36.04899 0,0 1.4373,7.96103 4.1297,10.67257 2.7212,2.74067 8.9673,4.45514 12.6996,3.46183 4.1558-1.10603 4.3143-5.36632 6.1145-9.27193 .1781-5.87255 2.0257-12.72642 2.7258-18.35628 .8561-6.88421 1.6473-12.79472 2.3661-19.24483 6.7952.92237 13.5312,1.75541 20.1285,2.50728l-2.6219,29.24088c-.5634,6.23973-.046,10.40243 8.9649,10.98117 8.2537.53013 14.0896-10.33199 14.0901-14.69894 .0005-.78922 3.4648-17.96322 4.5094-23.11292 5.384.40919 10.606.72618 15.6018.93069 9.8949.40503 20.413,2.38545 30.256,3.47595 13.5544,1.5017 35.5423-.65807 50.8391-2.61508-6.1639,61.5018-4.5593,123.48369-1.4598,185.58366 .9547,19.13316-2.5037,39.95676-1.4562,59.09589 .7847,14.32915 3.3692,28.00853 5.3642,41.83827-17.5988,1.52863-58.9878,5.173-82.7043,7.79825-34.5319,3.82244-68.776,10.18341-103.3845,13.23724-27.4367,2.42102-75.4061-1.58564-94.0373-.98044-12.524-89.14236-3.8822-204.55642 6.2908-336.49651z" fill="#ececec"/>
<path d="m-2102.7887,107.37074c-8.5216.43621-33.355,3.59915-32.6799,3.97436l-2.0192,70.39113c-.263,9.1782 3.1855,19.86072 18.9581,20.09318l45.0971.66021c7.8058.11506 8.1094-7.11952 4.5425-12.38106-.521-9.32097.2584-15.1879-1.6615-27.98259-2.741-18.26522-5.8987-30.34037-8.8432-45.50411 .392-.29205-15.2794-8.40231-20.8596-9.25943-.4304-.0662-1.3169-.054-2.5343.008z"/>
<path d="m-2108.0966,122.45204c3.053-.18693 5.3418.7988 7.81,1.52884 3.4956,12.03518 5.8393,24.13189 6.9194,36.31133 .8948,10.09141 3.0556,22.07634.3198,29.83698l-14.6607-.29181c-6.7646-.13816-8.3576-11.10813-7.9073-14.07233 .2843-1.87093 2.8842-50.40451 2.7902-52.18774 1.7818-.70276 3.3409-1.04028 4.7286-1.12527z" fill="#d78f8f"/>
<path d="m-2460.8846,210.03496 51.9825,2.4568c5.343.25156 6.5111,3.21646 5.6093,8.46668-8.1988,47.72168-.9287,97.39138.8982,142.1627-11.283-3.5878-30.3767-2.26522-41.3669-5.73617-1.2581-.3973-.5954-2.27706-.6982-3.74972l-16.4249-143.60029z" fill="#ccc"/>
</g>
</svg>
